<mxfile host="app.diagrams.net" agent="Mozilla/5.0 (Windows NT 10.0; Win64; x64) AppleWebKit/537.36 (KHTML, like Gecko) Chrome/127.0.0.0 Safari/537.36" version="24.7.7">
  <diagram name="Page-1" id="xWLZw0Ofq7Re0Qa0eeTw">
    <mxGraphModel dx="531" dy="286" grid="1" gridSize="10" guides="1" tooltips="1" connect="1" arrows="1" fold="1" page="1" pageScale="1" pageWidth="1169" pageHeight="827" math="0" shadow="0">
      <root>
        <mxCell id="0" />
        <mxCell id="1" parent="0" />
        <mxCell id="SSLxgvCpGCOq4GVA-i-U-6" value="&lt;div style=&quot;line-height: 19px;&quot;&gt;&lt;font face=&quot;Consolas, Courier New, monospace&quot;&gt;&lt;span style=&quot;font-size: 14px; white-space: pre;&quot;&gt;prod&lt;/span&gt;&lt;/font&gt;&lt;br&gt;&lt;/div&gt;" style="rounded=0;whiteSpace=wrap;html=1;fillColor=#d5e8d4;strokeColor=#82b366;" parent="1" vertex="1">
          <mxGeometry x="520" y="120" width="120" height="40" as="geometry" />
        </mxCell>
        <mxCell id="SSLxgvCpGCOq4GVA-i-U-118" style="edgeStyle=orthogonalEdgeStyle;rounded=0;orthogonalLoop=1;jettySize=auto;html=1;" parent="1" source="SSLxgvCpGCOq4GVA-i-U-9" target="SSLxgvCpGCOq4GVA-i-U-37" edge="1">
          <mxGeometry relative="1" as="geometry">
            <Array as="points">
              <mxPoint x="100" y="130" />
              <mxPoint x="100" y="130" />
            </Array>
          </mxGeometry>
        </mxCell>
        <mxCell id="an-1rLe9KzAKoy_BCdjf-114" value="1" style="edgeLabel;html=1;align=center;verticalAlign=middle;resizable=0;points=[];" vertex="1" connectable="0" parent="SSLxgvCpGCOq4GVA-i-U-118">
          <mxGeometry x="-0.125" y="3" relative="1" as="geometry">
            <mxPoint as="offset" />
          </mxGeometry>
        </mxCell>
        <mxCell id="SSLxgvCpGCOq4GVA-i-U-9" value="" style="sketch=0;outlineConnect=0;fontColor=#232F3E;gradientColor=none;strokeColor=#232F3E;fillColor=#ffffff;dashed=0;verticalLabelPosition=bottom;verticalAlign=top;align=center;html=1;fontSize=12;fontStyle=0;aspect=fixed;shape=mxgraph.aws4.resourceIcon;resIcon=mxgraph.aws4.user;" parent="1" vertex="1">
          <mxGeometry x="40" y="120" width="40" height="40" as="geometry" />
        </mxCell>
        <mxCell id="SSLxgvCpGCOq4GVA-i-U-19" value="Gateway" style="rounded=0;whiteSpace=wrap;html=1;fillColor=#dae8fc;strokeColor=#6c8ebf;" parent="1" vertex="1">
          <mxGeometry x="120" y="40" width="360" height="40" as="geometry" />
        </mxCell>
        <mxCell id="SSLxgvCpGCOq4GVA-i-U-21" value="Stage" style="rounded=0;whiteSpace=wrap;html=1;fillColor=#d5e8d4;strokeColor=#82b366;" parent="1" vertex="1">
          <mxGeometry x="520" y="40" width="120" height="40" as="geometry" />
        </mxCell>
        <mxCell id="SSLxgvCpGCOq4GVA-i-U-34" value="resource" style="rounded=0;whiteSpace=wrap;html=1;fillColor=#ffe6cc;strokeColor=#d79b00;" parent="1" vertex="1">
          <mxGeometry x="680" y="40" width="200" height="40" as="geometry" />
        </mxCell>
        <mxCell id="SSLxgvCpGCOq4GVA-i-U-45" style="edgeStyle=orthogonalEdgeStyle;rounded=0;orthogonalLoop=1;jettySize=auto;html=1;entryX=0;entryY=0.25;entryDx=0;entryDy=0;" parent="1" source="SSLxgvCpGCOq4GVA-i-U-37" target="SSLxgvCpGCOq4GVA-i-U-6" edge="1">
          <mxGeometry relative="1" as="geometry">
            <Array as="points">
              <mxPoint x="490" y="130" />
              <mxPoint x="490" y="130" />
            </Array>
          </mxGeometry>
        </mxCell>
        <mxCell id="an-1rLe9KzAKoy_BCdjf-115" value="2" style="edgeLabel;html=1;align=center;verticalAlign=middle;resizable=0;points=[];" vertex="1" connectable="0" parent="SSLxgvCpGCOq4GVA-i-U-45">
          <mxGeometry x="-0.0833" y="1" relative="1" as="geometry">
            <mxPoint y="1" as="offset" />
          </mxGeometry>
        </mxCell>
        <mxCell id="SSLxgvCpGCOq4GVA-i-U-37" value="&lt;div style=&quot;font-family: Consolas, &amp;quot;Courier New&amp;quot;, monospace; font-size: 14px; line-height: 19px; white-space: pre;&quot;&gt;&lt;span style=&quot;background-color: rgb(218, 232, 252);&quot;&gt;&lt;font style=&quot;&quot; color=&quot;#000000&quot;&gt;aaaa123456.execute-api.us-east-1.&lt;/font&gt;&lt;font style=&quot;&quot; color=&quot;#000000&quot;&gt;amazonaws.com&lt;/font&gt;&lt;/span&gt;&lt;/div&gt;" style="rounded=0;whiteSpace=wrap;html=1;fillColor=#dae8fc;strokeColor=#6c8ebf;fontColor=#050505;" parent="1" vertex="1">
          <mxGeometry x="120" y="120" width="360" height="40" as="geometry" />
        </mxCell>
        <mxCell id="SSLxgvCpGCOq4GVA-i-U-38" value="method" style="rounded=0;whiteSpace=wrap;html=1;fillColor=#f8cecc;strokeColor=#b85450;" parent="1" vertex="1">
          <mxGeometry x="920" y="40" width="80" height="40" as="geometry" />
        </mxCell>
        <mxCell id="SSLxgvCpGCOq4GVA-i-U-42" value="user" style="rounded=0;whiteSpace=wrap;html=1;fillColor=#ffe6cc;strokeColor=#d79b00;" parent="1" vertex="1">
          <mxGeometry x="680" y="120" width="80" height="40" as="geometry" />
        </mxCell>
        <mxCell id="SSLxgvCpGCOq4GVA-i-U-56" value="User Querier Lambda" style="rounded=0;whiteSpace=wrap;html=1;fillColor=#e1d5e7;strokeColor=#9673a6;" parent="1" vertex="1">
          <mxGeometry x="1040" y="120" width="160" height="40" as="geometry" />
        </mxCell>
        <mxCell id="SSLxgvCpGCOq4GVA-i-U-83" value="Integration" style="rounded=0;whiteSpace=wrap;html=1;fillColor=#e1d5e7;strokeColor=#9673a6;" parent="1" vertex="1">
          <mxGeometry x="1040" y="40" width="160" height="40" as="geometry" />
        </mxCell>
        <mxCell id="7Ie2D8BQiTMmm4zo3DZs-69" style="edgeStyle=orthogonalEdgeStyle;rounded=0;orthogonalLoop=1;jettySize=auto;html=1;entryX=0;entryY=0.5;entryDx=0;entryDy=0;" parent="1" edge="1">
          <mxGeometry relative="1" as="geometry">
            <mxPoint x="760" y="130" as="sourcePoint" />
            <mxPoint x="920" y="130" as="targetPoint" />
          </mxGeometry>
        </mxCell>
        <mxCell id="an-1rLe9KzAKoy_BCdjf-125" value="3" style="edgeLabel;html=1;align=center;verticalAlign=middle;resizable=0;points=[];" vertex="1" connectable="0" parent="7Ie2D8BQiTMmm4zo3DZs-69">
          <mxGeometry x="0.7077" relative="1" as="geometry">
            <mxPoint as="offset" />
          </mxGeometry>
        </mxCell>
        <mxCell id="SSLxgvCpGCOq4GVA-i-U-121" value="{PROXY+}" style="rounded=0;whiteSpace=wrap;html=1;fillColor=#ffe6cc;strokeColor=#d79b00;" parent="1" vertex="1">
          <mxGeometry x="800" y="120" width="80" height="40" as="geometry" />
        </mxCell>
        <mxCell id="7Ie2D8BQiTMmm4zo3DZs-78" style="edgeStyle=orthogonalEdgeStyle;rounded=0;orthogonalLoop=1;jettySize=auto;html=1;" parent="1" edge="1">
          <mxGeometry relative="1" as="geometry">
            <mxPoint x="1000" y="130" as="sourcePoint" />
            <mxPoint x="1040" y="130" as="targetPoint" />
          </mxGeometry>
        </mxCell>
        <mxCell id="an-1rLe9KzAKoy_BCdjf-119" value="4" style="edgeLabel;html=1;align=center;verticalAlign=middle;resizable=0;points=[];" vertex="1" connectable="0" parent="7Ie2D8BQiTMmm4zo3DZs-78">
          <mxGeometry y="1" relative="1" as="geometry">
            <mxPoint as="offset" />
          </mxGeometry>
        </mxCell>
        <mxCell id="SSLxgvCpGCOq4GVA-i-U-152" value="GET" style="rounded=0;whiteSpace=wrap;html=1;fillColor=#f8cecc;strokeColor=#b85450;" parent="1" vertex="1">
          <mxGeometry x="920" y="120" width="80" height="40" as="geometry" />
        </mxCell>
        <mxCell id="an-1rLe9KzAKoy_BCdjf-107" style="edgeStyle=orthogonalEdgeStyle;rounded=0;orthogonalLoop=1;jettySize=auto;html=1;entryX=0;entryY=0.25;entryDx=0;entryDy=0;exitX=1;exitY=0.25;exitDx=0;exitDy=0;" edge="1" parent="1" source="SSLxgvCpGCOq4GVA-i-U-6" target="SSLxgvCpGCOq4GVA-i-U-42">
          <mxGeometry relative="1" as="geometry">
            <mxPoint x="490" y="140" as="sourcePoint" />
            <mxPoint x="530" y="140" as="targetPoint" />
            <Array as="points">
              <mxPoint x="640" y="130" />
              <mxPoint x="640" y="130" />
            </Array>
          </mxGeometry>
        </mxCell>
        <mxCell id="an-1rLe9KzAKoy_BCdjf-116" value="3" style="edgeLabel;html=1;align=center;verticalAlign=middle;resizable=0;points=[];" vertex="1" connectable="0" parent="an-1rLe9KzAKoy_BCdjf-107">
          <mxGeometry x="-0.1667" relative="1" as="geometry">
            <mxPoint as="offset" />
          </mxGeometry>
        </mxCell>
        <mxCell id="an-1rLe9KzAKoy_BCdjf-110" style="edgeStyle=orthogonalEdgeStyle;rounded=0;orthogonalLoop=1;jettySize=auto;html=1;entryX=0;entryY=0.25;entryDx=0;entryDy=0;exitX=1;exitY=0.25;exitDx=0;exitDy=0;" edge="1" parent="1">
          <mxGeometry relative="1" as="geometry">
            <mxPoint x="760" y="130" as="sourcePoint" />
            <mxPoint x="800" y="130" as="targetPoint" />
            <Array as="points">
              <mxPoint x="760" y="130" />
              <mxPoint x="760" y="130" />
            </Array>
          </mxGeometry>
        </mxCell>
        <mxCell id="an-1rLe9KzAKoy_BCdjf-117" value="3" style="edgeLabel;html=1;align=center;verticalAlign=middle;resizable=0;points=[];" vertex="1" connectable="0" parent="an-1rLe9KzAKoy_BCdjf-110">
          <mxGeometry x="-0.1667" y="3" relative="1" as="geometry">
            <mxPoint as="offset" />
          </mxGeometry>
        </mxCell>
        <mxCell id="an-1rLe9KzAKoy_BCdjf-112" value="" style="endArrow=classic;html=1;rounded=0;" edge="1" parent="1">
          <mxGeometry width="50" height="50" relative="1" as="geometry">
            <mxPoint x="1040" y="150" as="sourcePoint" />
            <mxPoint x="1000" y="150" as="targetPoint" />
          </mxGeometry>
        </mxCell>
        <mxCell id="an-1rLe9KzAKoy_BCdjf-120" value="5" style="edgeLabel;html=1;align=center;verticalAlign=middle;resizable=0;points=[];" vertex="1" connectable="0" parent="an-1rLe9KzAKoy_BCdjf-112">
          <mxGeometry x="-0.1042" relative="1" as="geometry">
            <mxPoint x="-4" as="offset" />
          </mxGeometry>
        </mxCell>
        <mxCell id="an-1rLe9KzAKoy_BCdjf-121" value="" style="endArrow=classic;html=1;rounded=0;" edge="1" parent="1">
          <mxGeometry width="50" height="50" relative="1" as="geometry">
            <mxPoint x="920" y="150" as="sourcePoint" />
            <mxPoint x="880" y="150" as="targetPoint" />
          </mxGeometry>
        </mxCell>
        <mxCell id="an-1rLe9KzAKoy_BCdjf-122" value="6" style="edgeLabel;html=1;align=center;verticalAlign=middle;resizable=0;points=[];" vertex="1" connectable="0" parent="an-1rLe9KzAKoy_BCdjf-121">
          <mxGeometry x="-0.1042" relative="1" as="geometry">
            <mxPoint as="offset" />
          </mxGeometry>
        </mxCell>
        <mxCell id="an-1rLe9KzAKoy_BCdjf-123" value="" style="endArrow=classic;html=1;rounded=0;" edge="1" parent="1">
          <mxGeometry width="50" height="50" relative="1" as="geometry">
            <mxPoint x="800" y="150" as="sourcePoint" />
            <mxPoint x="760" y="150" as="targetPoint" />
          </mxGeometry>
        </mxCell>
        <mxCell id="an-1rLe9KzAKoy_BCdjf-124" value="6" style="edgeLabel;html=1;align=center;verticalAlign=middle;resizable=0;points=[];" vertex="1" connectable="0" parent="an-1rLe9KzAKoy_BCdjf-123">
          <mxGeometry x="-0.1042" relative="1" as="geometry">
            <mxPoint as="offset" />
          </mxGeometry>
        </mxCell>
        <mxCell id="an-1rLe9KzAKoy_BCdjf-127" value="" style="endArrow=classic;html=1;rounded=0;" edge="1" parent="1">
          <mxGeometry width="50" height="50" relative="1" as="geometry">
            <mxPoint x="680" y="150" as="sourcePoint" />
            <mxPoint x="640" y="150" as="targetPoint" />
          </mxGeometry>
        </mxCell>
        <mxCell id="an-1rLe9KzAKoy_BCdjf-128" value="6" style="edgeLabel;html=1;align=center;verticalAlign=middle;resizable=0;points=[];" vertex="1" connectable="0" parent="an-1rLe9KzAKoy_BCdjf-127">
          <mxGeometry x="-0.1042" relative="1" as="geometry">
            <mxPoint as="offset" />
          </mxGeometry>
        </mxCell>
        <mxCell id="an-1rLe9KzAKoy_BCdjf-129" value="" style="endArrow=classic;html=1;rounded=0;" edge="1" parent="1">
          <mxGeometry width="50" height="50" relative="1" as="geometry">
            <mxPoint x="520" y="150" as="sourcePoint" />
            <mxPoint x="480" y="150" as="targetPoint" />
          </mxGeometry>
        </mxCell>
        <mxCell id="an-1rLe9KzAKoy_BCdjf-130" value="6" style="edgeLabel;html=1;align=center;verticalAlign=middle;resizable=0;points=[];" vertex="1" connectable="0" parent="an-1rLe9KzAKoy_BCdjf-129">
          <mxGeometry x="-0.1042" relative="1" as="geometry">
            <mxPoint as="offset" />
          </mxGeometry>
        </mxCell>
        <mxCell id="an-1rLe9KzAKoy_BCdjf-131" value="" style="endArrow=classic;html=1;rounded=0;" edge="1" parent="1">
          <mxGeometry width="50" height="50" relative="1" as="geometry">
            <mxPoint x="120" y="150" as="sourcePoint" />
            <mxPoint x="80" y="150" as="targetPoint" />
          </mxGeometry>
        </mxCell>
        <mxCell id="an-1rLe9KzAKoy_BCdjf-132" value="6" style="edgeLabel;html=1;align=center;verticalAlign=middle;resizable=0;points=[];" vertex="1" connectable="0" parent="an-1rLe9KzAKoy_BCdjf-131">
          <mxGeometry x="-0.1042" relative="1" as="geometry">
            <mxPoint as="offset" />
          </mxGeometry>
        </mxCell>
      </root>
    </mxGraphModel>
  </diagram>
</mxfile>
